<svg
   viewBox="0 0 512 512"
   fill="none" xmlns="http://www.w3.org/2000/svg"
   width="512"
   height="512">
   <path
      d="m 256.52908,457.27601 q -51.10679,23.43752 -100.58599,23.43752 -90.820352,0 -90.820352,-96.0287 V 177.32796 H 0.01853943 V 133.38263 H 65.122738 V 40.609144 h 49.479192 v 92.773486 h 115.23443 v 43.94533 H 114.60193 v 194.01051 q 0,30.9245 13.67188,48.17711 13.67188,16.92709 37.10939,16.92709 41.66669,0 82.35681,-18.5547 z"
      fill="#ff0000" />
   <path
      d="m 308.50486,222.87985 q 21.40666,-5.66647 41.8689,-5.66647 62.96074,0 99.47797,38.72086 36.51724,38.40605 36.51724,96.01513 0,60.44232 -42.49851,102.62602 -42.4985,41.86889 -103.57042,41.86889 -58.23869,0 -97.58915,-19.51783 l 10.38852,-43.75772 q 42.81331,17.94381 88.45985,17.94381 40.60968,0 65.47917,-26.1287 25.1843,-26.12871 25.1843,-73.03447 0,-44.38732 -23.61028,-68.3124 -23.61028,-23.92509 -60.75712,-23.92509 -27.07312,0 -53.51663,10.38853 L 263.48793,255.93424 V 43.756532 h 203.0484 V 88.773464 H 308.50486 Z"
      fill="#0000ff" />
</svg>